HIERARCHY
ROOT Hips
{
	OFFSET 0.000000 0.000000 0.000000
	CHANNELS 6 Xposition Yposition Zposition Zrotation Yrotation Xrotation 
	JOINT LHipJoint
	{
		OFFSET 0.000000 0.000000 0.000000
		CHANNELS 3 Zrotation Yrotation Xrotation
		JOINT LeftUpLeg
		{
			OFFSET 1.363060 -1.794630 0.839290
			CHANNELS 3 Zrotation Yrotation Xrotation
			JOINT LeftLeg
			{
				OFFSET 2.448110 -6.726130 0.000000
				CHANNELS 3 Zrotation Yrotation Xrotation
				JOINT LeftFoot
				{
					OFFSET 2.562200 -7.039590 0.000000
					CHANNELS 3 Zrotation Yrotation Xrotation
					JOINT LeftToeBase
					{
						OFFSET 0.157640 -0.433110 2.322550
						CHANNELS 3 Zrotation Yrotation Xrotation
						End Site
						{
							OFFSET 0.000000 0.000000 0.000000
						}
					}
				}
			}
		}
	}
	JOINT RHipJoint
	{
		OFFSET 0.000000 0.000000 0.000000
		CHANNELS 3 Zrotation Yrotation Xrotation
		JOINT RightUpLeg
		{
			OFFSET -1.305520 -1.794630 0.839290
			CHANNELS 3 Zrotation Yrotation Xrotation
			JOINT RightLeg
			{
				OFFSET -2.542530 -6.985550 0.000000
				CHANNELS 3 Zrotation Yrotation Xrotation
				JOINT RightFoot
				{
					OFFSET -2.568260 -7.056230 0.000000
					CHANNELS 3 Zrotation Yrotation Xrotation
					JOINT RightToeBase
					{
						OFFSET -0.164730 -0.452590 2.363150
						CHANNELS 3 Zrotation Yrotation Xrotation
						End Site
						{
							OFFSET 0.000000 0.000000 0.000000
						}
					}
				}
			}
		}
	}
}
MOTION
Frames: 22
Frame Time: 0.008333
1.560048 17.327167 0.841975 175.202151 -74.019377 -174.217369 -12.776686 6.611395 1.300044 -1.621362 35.939505 -0.565039 -3.005574 -0.687475 -2.717775 0.451036 7.409871 5.231218 1.767700 -0.000000 -52.327400 9.084679 -3.716211 5.416259 -1.895344 -1.320652 1.665932 2.138140 1.586397 -3.389777 0.512554 0.007509 7.779466 -0.761300 -0.000000 -73.193500
1.554759 17.326515 0.841148 175.010201 -73.552507 -173.924412 -12.793937 6.603888 1.280675 -1.767873 35.896856 -0.421965 -2.987913 -0.706316 -2.946130 0.506508 7.746517 5.388080 1.833500 0.000000 -52.404800 9.082522 -3.716658 5.474476 -2.020590 -0.987364 1.305310 2.128523 1.560302 -3.081298 0.523821 0.197166 7.604714 -0.702700 -0.000000 -73.262300
1.550651 17.325407 0.839741 174.817016 -73.113967 -173.620548 -12.808460 6.593512 1.264388 -1.922351 35.835548 -0.287501 -2.971562 -0.726987 -3.186375 0.565291 8.057095 5.544667 1.890801 0.000000 -52.474401 9.082831 -3.715699 5.527730 -2.146962 -0.692995 0.940510 2.120707 1.535734 -2.790084 0.537328 0.404712 7.428931 -0.640300 -0.000000 -73.317199
1.547710 17.323940 0.838037 174.622226 -72.710086 -173.302771 -12.819066 6.579289 1.252688 -2.092709 35.739030 -0.177401 -2.954892 -0.748074 -3.416746 0.625443 8.360981 5.682612 1.945300 0.000000 -52.531800 9.085481 -3.712174 5.575216 -2.273039 -0.431367 0.573579 2.113942 1.513006 -2.518981 0.551328 0.613947 7.256245 -0.578600 -0.000000 -73.368300
1.545932 17.322133 0.836397 174.428794 -72.344929 -172.979556 -12.827684 6.563394 1.240747 -2.268771 35.646981 -0.087405 -2.942523 -0.770063 -3.650529 0.685584 8.622216 5.813257 1.987500 -0.000001 -52.573701 9.090277 -3.705756 5.616428 -2.397410 -0.207776 0.204079 2.107748 1.491575 -2.253822 0.565778 0.825446 7.081790 -0.517500 -0.000001 -73.406800
1.545053 17.320117 0.835035 174.240544 -72.017551 -172.649376 -12.833874 6.545184 1.229510 -2.457461 35.548381 -0.030282 -2.933008 -0.791948 -3.870495 0.744205 8.861634 5.921810 2.023300 0.000000 -52.597100 9.096769 -3.695776 5.651796 -2.518999 -0.012883 -0.170936 2.101611 1.471392 -1.991796 0.579520 1.028852 6.907566 -0.459700 0.000000 -73.443200
1.545144 17.317931 0.834193 174.059811 -71.725449 -172.317283 -12.838474 6.525145 1.216868 -2.656565 35.457151 -0.007756 -2.927473 -0.813578 -4.077305 0.800417 9.074737 6.008828 2.051600 -0.000001 -52.599900 9.104538 -3.681837 5.681949 -2.636723 0.158800 -0.553847 2.095084 1.451988 -1.724480 0.592041 1.220126 6.732213 -0.406300 0.000000 -73.477800
1.545992 17.315697 0.833972 173.891873 -71.464512 -171.986161 -12.841998 6.503445 1.202255 -2.866631 35.376608 -0.022613 -2.925831 -0.834788 -4.268627 0.853718 9.267609 6.072669 2.074000 -0.000000 -52.581100 9.113008 -3.663986 5.708131 -2.749162 0.315403 -0.947840 2.087852 1.433026 -1.445606 0.602704 1.394375 6.554632 -0.358400 0.000001 -73.513301
1.547653 17.313491 0.834451 173.738385 -71.229750 -171.658657 -12.844513 6.479444 1.184588 -3.087485 35.309391 -0.081442 -2.927916 -0.854808 -4.431182 0.903165 9.444647 6.106220 2.091600 -0.000001 -52.539500 9.121796 -3.642154 5.731427 -2.855247 0.465301 -1.355877 2.079564 1.414004 -1.150217 0.610955 1.547291 6.374997 -0.316999 -0.000000 -73.549800
1.550110 17.311395 0.835584 173.600344 -71.011325 -171.336942 -12.840674 6.445255 1.161080 -3.322026 35.250456 -0.314520 -2.934136 -0.858864 -4.285707 0.924213 9.612019 5.949453 2.105900 0.000000 -52.475200 9.129840 -3.615775 5.753358 -2.954720 0.617081 -1.779342 2.070064 1.395164 -0.835207 0.616530 1.675231 6.193448 -0.282800 0.000001 -73.586601
1.553304 17.309475 0.837294 173.482042 -70.811695 -171.021479 -12.836566 6.409055 1.134374 -3.566412 35.200271 -0.569362 -2.942588 -0.863804 -4.153462 0.945539 9.776101 5.788783 2.118299 0.000000 -52.388900 9.137865 -3.586356 5.774627 -3.046236 0.777412 -2.219709 2.058936 1.375449 -0.500638 0.618465 1.773528 6.009756 -0.256500 -0.000000 -73.621400
1.557347 17.307785 0.839477 173.382357 -70.628059 -170.712403 -12.831618 6.369984 1.104680 -3.820224 35.152483 -0.845372 -2.952316 -0.869379 -4.029571 0.967774 9.942357 5.623476 2.129800 -0.000000 -52.281700 9.145904 -3.554262 5.795935 -3.129231 0.951611 -2.676798 2.045961 1.354587 -0.148128 0.616239 1.838695 5.824550 -0.238700 -0.000000 -73.651300
1.562121 17.306313 0.841984 173.302894 -70.457844 -170.408624 -12.825389 6.327327 1.072581 -4.082440 35.099767 -1.142106 -2.962450 -0.875470 -3.908849 0.991448 10.115302 5.452380 2.141100 0.000000 -52.155100 9.153924 -3.520161 5.817989 -3.203537 1.143430 -3.149690 2.031152 1.332572 0.218455 0.609578 1.869107 5.638895 -0.229300 0.000000 -73.673800
1.567765 17.305077 0.844601 173.239416 -70.301307 -170.108755 -12.817113 6.280439 1.038953 -4.351687 35.034433 -1.458482 -2.972150 -0.881792 -3.784925 1.016790 10.296201 5.273235 2.152199 0.000000 -52.010900 9.162131 -3.484474 5.840955 -3.269642 1.353721 -3.635223 2.014372 1.309381 0.595319 0.598202 1.863590 5.452679 -0.228500 0.000000 -73.683300
1.574202 17.304026 0.847221 173.190398 -70.157492 -169.810278 -12.806334 6.229044 1.004935 -4.626998 34.948886 -1.793022 -2.980631 -0.888229 -3.653490 1.044135 10.487623 5.085530 2.163400 0.000000 -51.851600 9.170588 -3.447778 5.865005 -3.328217 1.581446 -4.131284 1.995819 1.285240 0.976765 0.582232 1.823581 5.267446 -0.235400 0.000000 -73.679100
1.581424 17.303137 0.849711 173.152673 -70.026491 -169.511280 -12.792669 6.173041 0.971565 -4.907063 34.837710 -2.144461 -2.987400 -0.894641 -3.511090 1.073521 10.689356 4.888900 2.174500 0.000001 -51.679600 9.179440 -3.410380 5.889811 -3.380441 1.822648 -4.635293 1.975794 1.260417 1.357649 0.562140 1.753224 5.084490 -0.248900 0.000000 -73.659500
1.589330 17.302372 0.851949 173.122040 -69.909023 -169.208257 -12.775923 6.112773 0.939792 -5.190314 34.698027 -2.510405 -2.992281 -0.901017 -3.355863 1.104791 10.899809 4.683257 2.185000 0.000000 -51.498800 9.188804 -3.372660 5.915112 -3.427804 2.072575 -5.144267 1.954614 1.235272 1.733216 0.538495 1.657450 4.904283 -0.267800 -0.000000 -73.626100
1.597951 17.301708 0.853905 173.093908 -69.803445 -168.899336 -12.756146 6.048813 0.910282 -5.476629 34.530996 -2.890056 -2.995444 -0.907295 -3.187281 1.137650 11.116670 4.470776 2.194701 0.000000 -51.310799 9.198882 -3.334642 5.939833 -3.472092 2.320236 -5.658908 1.933039 1.209959 2.101278 0.513034 1.549322 4.729500 -0.289000 -0.000000 -73.583100
1.607092 17.301093 0.855550 173.067667 -69.710920 -168.583180 -12.733590 5.981991 0.883345 -5.763846 34.338026 -3.279894 -2.997166 -0.913577 -3.007983 1.171601 11.336102 4.254019 2.203101 0.000000 -51.119300 9.209674 -3.296633 5.963741 -3.514598 2.562520 -6.174718 1.911392 1.184985 2.456648 0.486263 1.432160 4.561268 -0.311700 -0.000001 -73.532900
1.616771 17.300537 0.856912 173.037447 -69.628188 -168.257484 -12.708657 5.913332 0.859215 -6.052458 34.126075 -3.679164 -2.998192 -0.919980 -2.820342 1.206040 11.554146 4.035858 2.209900 -0.000000 -50.926700 9.221446 -3.258453 5.985389 -3.557333 2.784605 -6.695330 1.890657 1.160294 2.801323 0.460771 1.324718 4.401802 -0.331700 -0.000001 -73.483600
1.626965 17.300050 0.858024 173.002800 -69.555321 -167.923810 -12.681731 5.843526 0.836729 -6.340280 33.901394 -4.083434 -2.999032 -0.926539 -2.629972 1.240306 11.766570 3.821013 2.215200 0.000000 -50.735699 9.234242 -3.220069 6.004338 -3.600959 2.986066 -7.215503 1.871079 1.136209 3.130139 0.437006 1.228708 4.253608 -0.349000 -0.000000 -73.439100
1.637512 17.299649 0.858995 172.963701 -69.488982 -167.582182 -12.653496 5.773791 0.815660 -6.627835 33.673086 -4.491494 -3.000620 -0.933491 -2.441184 1.273677 11.969270 3.613269 2.219000 -0.000000 -50.547701 9.248186 -3.181519 6.019590 -3.646759 3.155528 -7.738764 1.853604 1.112650 3.445950 0.417314 1.160222 4.118617 -0.360200 -0.000000 -73.406700
